{"glyphs":{"0":{"ha":1389,"x_min":0,"x_max":1157,"o":"m 1157 116 l 1042 116 l 1042 0 l 116 0 l 116 116 l 0 116 l 0 1042 l 116 1042 l 116 1157 l 1042 1157 l 1042 1042 l 1157 1042 l 1157 116 m 694 694 l 694 926 l 463 926 l 463 694 l 694 694 m 694 231 l 694 463 l 463 463 l 463 231 l 694 231 z "},"1":{"ha":694,"x_min":-116,"x_max":463,"o":"m 463 0 l 0 0 l 0 926 l -116 926 l -116 1157 l 347 1157 l 347 1042 l 463 1042 l 463 0 z "},"2":{"ha":1389,"x_min":0,"x_max":1157,"o":"m 1157 0 l 0 0 l 0 579 l 116 579 l 116 694 l 694 694 l 694 926 l 0 926 l 0 1157 l 1042 1157 l 1042 1042 l 1157 1042 l 1157 579 l 1042 579 l 1042 463 l 463 463 l 463 231 l 1157 231 l 1157 0 z "},"3":{"ha":1389,"x_min":0,"x_max":1157,"o":"m 1157 116 l 1042 116 l 1042 0 l 0 0 l 0 231 l 694 231 l 694 463 l 347 463 l 347 694 l 694 694 l 694 926 l 0 926 l 0 1157 l 1042 1157 l 1042 1042 l 1157 1042 l 1157 694 l 1042 694 l 1042 463 l 1157 463 l 1157 116 z "},"4":{"ha":1389,"x_min":0,"x_max":1157,"o":"m 1157 0 l 694 0 l 694 463 l 116 463 l 116 579 l 0 579 l 0 1157 l 463 1157 l 463 694 l 694 694 l 694 1157 l 1157 1157 l 1157 0 z "},"5":{"ha":1389,"x_min":0,"x_max":1157,"o":"m 1157 116 l 1042 116 l 1042 0 l 0 0 l 0 231 l 694 231 l 694 463 l 116 463 l 116 579 l 0 579 l 0 1157 l 1157 1157 l 1157 926 l 463 926 l 463 694 l 1042 694 l 1042 579 l 1157 579 l 1157 116 z "},"6":{"ha":1389,"x_min":0,"x_max":1157,"o":"m 1157 116 l 1042 116 l 1042 0 l 116 0 l 116 116 l 0 116 l 0 1042 l 116 1042 l 116 1157 l 1157 1157 l 1157 926 l 463 926 l 463 694 l 1042 694 l 1042 579 l 1157 579 l 1157 116 m 694 231 l 694 463 l 463 463 l 463 231 l 694 231 z "},"7":{"ha":1389,"x_min":0,"x_max":1157,"o":"m 1157 0 l 694 0 l 694 926 l 0 926 l 0 1157 l 1042 1157 l 1042 1042 l 1157 1042 l 1157 0 z "},"8":{"ha":1389,"x_min":0,"x_max":1157,"o":"m 1157 116 l 1042 116 l 1042 0 l 116 0 l 116 116 l 0 116 l 0 463 l 116 463 l 116 694 l 0 694 l 0 1042 l 116 1042 l 116 1157 l 1042 1157 l 1042 1042 l 1157 1042 l 1157 694 l 1042 694 l 1042 463 l 1157 463 l 1157 116 m 694 694 l 694 926 l 463 926 l 463 694 l 694 694 m 694 231 l 694 463 l 463 463 l 463 231 l 694 231 z "},"9":{"ha":1389,"x_min":0,"x_max":1157,"o":"m 1157 116 l 1042 116 l 1042 0 l 0 0 l 0 231 l 694 231 l 694 463 l 116 463 l 116 579 l 0 579 l 0 1042 l 116 1042 l 116 1157 l 1042 1157 l 1042 1042 l 1157 1042 l 1157 116 m 694 694 l 694 926 l 463 926 l 463 694 l 694 694 z "}," ":{"ha":694,"x_min":0,"x_max":0,"o":""},"#":{"ha":1389,"x_min":0,"x_max":1389,"o":"m 1389 0 l 0 0 l 0 1389 l 1389 1389 l 1389 0 m 1157 231 l 1157 1157 l 231 1157 l 231 231 l 1157 231 z "},"(":{"ha":694,"x_min":0,"x_max":694,"o":"m 694 0 l 116 0 l 116 116 l 0 116 l 0 1042 l 116 1042 l 116 1157 l 694 1157 l 694 926 l 463 926 l 463 231 l 694 231 l 694 0 z "},")":{"ha":694,"x_min":0,"x_max":694,"o":"m 694 116 l 579 116 l 579 0 l 0 0 l 0 231 l 231 231 l 231 926 l 0 926 l 0 1157 l 579 1157 l 579 1042 l 694 1042 l 694 116 z "},"*":{"ha":1389,"x_min":0,"x_max":1157,"o":"m 1157 1019 l 1065 926 l 1019 926 l 926 1019 l 926 1065 l 1019 1157 l 1065 1157 l 1157 1065 l 1157 1019 m 926 764 l 856 694 l 764 694 l 694 764 l 694 856 l 764 926 l 856 926 l 926 856 l 926 764 m 694 509 l 648 463 l 509 463 l 463 509 l 463 648 l 509 694 l 648 694 l 694 648 l 694 509 m 231 1019 l 139 926 l 93 926 l 0 1019 l 0 1065 l 93 1157 l 139 1157 l 231 1065 l 231 1019 m 463 764 l 394 694 l 301 694 l 231 764 l 231 856 l 301 926 l 394 926 l 463 856 l 463 764 m 926 301 l 856 231 l 764 231 l 694 301 l 694 394 l 764 463 l 856 463 l 926 394 l 926 301 m 1157 93 l 1065 0 l 1019 0 l 926 93 l 926 139 l 1019 231 l 1065 231 l 1157 139 l 1157 93 m 463 301 l 394 231 l 301 231 l 231 301 l 231 394 l 301 463 l 394 463 l 463 394 l 463 301 m 231 93 l 139 0 l 93 0 l 0 93 l 0 139 l 93 231 l 139 231 l 231 139 l 231 93 z "},"A":{"ha":1389,"x_min":0,"x_max":1157,"o":"m 1157 0 l 694 0 l 694 463 l 463 463 l 463 0 l 0 0 l 0 1042 l 116 1042 l 116 1157 l 1042 1157 l 1042 1042 l 1157 1042 l 1157 0 m 694 694 l 694 926 l 463 926 l 463 694 l 694 694 z "},"B":{"ha":1389,"x_min":0,"x_max":1157,"o":"m 1157 116 l 1042 116 l 1042 0 l 0 0 l 0 1157 l 1042 1157 l 1042 1042 l 1157 1042 l 1157 694 l 1042 694 l 1042 463 l 1157 463 l 1157 116 m 694 694 l 694 926 l 463 926 l 463 694 l 694 694 m 694 231 l 694 463 l 463 463 l 463 231 l 694 231 z "},"C":{"ha":1389,"x_min":0,"x_max":1157,"o":"m 1157 0 l 116 0 l 116 116 l 0 116 l 0 1042 l 116 1042 l 116 1157 l 1157 1157 l 1157 926 l 463 926 l 463 231 l 1157 231 l 1157 0 z "},"D":{"ha":1389,"x_min":0,"x_max":1157,"o":"m 1157 116 l 1042 116 l 1042 0 l 0 0 l 0 1157 l 1042 1157 l 1042 1042 l 1157 1042 l 1157 116 m 694 231 l 694 926 l 463 926 l 463 231 l 694 231 z "},"E":{"ha":1389,"x_min":0,"x_max":1157,"o":"m 1157 0 l 116 0 l 116 116 l 0 116 l 0 1042 l 116 1042 l 116 1157 l 1157 1157 l 1157 926 l 463 926 l 463 694 l 810 694 l 810 463 l 463 463 l 463 231 l 1157 231 l 1157 0 z "},"F":{"ha":1389,"x_min":0,"x_max":1157,"o":"m 1157 926 l 463 926 l 463 694 l 810 694 l 810 463 l 463 463 l 463 0 l 0 0 l 0 1042 l 116 1042 l 116 1157 l 1157 1157 l 1157 926 z "},"G":{"ha":1389,"x_min":0,"x_max":1157,"o":"m 1157 0 l 116 0 l 116 116 l 0 116 l 0 1042 l 116 1042 l 116 1157 l 1157 1157 l 1157 926 l 463 926 l 463 231 l 694 231 l 694 463 l 579 463 l 579 694 l 1157 694 l 1157 0 z "},"H":{"ha":1389,"x_min":0,"x_max":1157,"o":"m 1157 0 l 694 0 l 694 463 l 463 463 l 463 0 l 0 0 l 0 1157 l 463 1157 l 463 694 l 694 694 l 694 1157 l 1157 1157 l 1157 0 z "},"I":{"ha":694,"x_min":0,"x_max":463,"o":"m 463 0 l 0 0 l 0 1157 l 463 1157 l 463 0 z "},"J":{"ha":1389,"x_min":0,"x_max":1157,"o":"m 1157 116 l 1042 116 l 1042 0 l 0 0 l 0 231 l 694 231 l 694 1157 l 1157 1157 l 1157 116 z "},"K":{"ha":1389,"x_min":0,"x_max":1157,"o":"m 1157 0 l 694 0 l 694 463 l 463 463 l 463 0 l 0 0 l 0 1157 l 463 1157 l 463 694 l 694 694 l 694 1157 l 1157 1157 l 1157 694 l 1042 694 l 1042 463 l 1157 463 l 1157 0 z "},"L":{"ha":1389,"x_min":0,"x_max":1157,"o":"m 1157 0 l 0 0 l 0 1157 l 463 1157 l 463 231 l 1157 231 l 1157 0 z "},"M":{"ha":2083,"x_min":0,"x_max":1852,"o":"m 1852 0 l 1389 0 l 1389 926 l 1157 926 l 1157 0 l 694 0 l 694 926 l 463 926 l 463 0 l 0 0 l 0 1157 l 1736 1157 l 1736 1042 l 1852 1042 l 1852 0 z "},"N":{"ha":1389,"x_min":0,"x_max":1157,"o":"m 1157 0 l 694 0 l 694 926 l 463 926 l 463 0 l 0 0 l 0 1157 l 1042 1157 l 1042 1042 l 1157 1042 l 1157 0 z "},"O":{"ha":1389,"x_min":0,"x_max":1157,"o":"m 1157 116 l 1042 116 l 1042 0 l 116 0 l 116 116 l 0 116 l 0 1042 l 116 1042 l 116 1157 l 1042 1157 l 1042 1042 l 1157 1042 l 1157 116 m 694 231 l 694 926 l 463 926 l 463 231 l 694 231 z "},"P":{"ha":1389,"x_min":0,"x_max":1157,"o":"m 1157 579 l 1042 579 l 1042 463 l 463 463 l 463 0 l 0 0 l 0 1157 l 1042 1157 l 1042 1042 l 1157 1042 l 1157 579 m 694 694 l 694 926 l 463 926 l 463 694 l 694 694 z "},"Q":{"ha":1389,"x_min":0,"x_max":1157,"o":"m 1157 116 l 1042 116 l 1042 0 l 116 0 l 116 116 l 0 116 l 0 1042 l 116 1042 l 116 1157 l 1042 1157 l 1042 1042 l 1157 1042 l 1157 116 m 694 231 l 694 926 l 463 926 l 463 231 l 694 231 z "},"R":{"ha":1389,"x_min":0,"x_max":1157,"o":"m 1157 0 l 694 0 l 694 463 l 463 463 l 463 0 l 0 0 l 0 1157 l 1042 1157 l 1042 1042 l 1157 1042 l 1157 694 l 1042 694 l 1042 463 l 1157 463 l 1157 0 m 694 694 l 694 926 l 463 926 l 463 694 l 694 694 z "},"S":{"ha":1389,"x_min":0,"x_max":1157,"o":"m 1157 116 l 1042 116 l 1042 0 l 0 0 l 0 231 l 694 231 l 694 463 l 116 463 l 116 579 l 0 579 l 0 1042 l 116 1042 l 116 1157 l 1157 1157 l 1157 926 l 463 926 l 463 694 l 1042 694 l 1042 579 l 1157 579 l 1157 116 z "},"T":{"ha":1389,"x_min":0,"x_max":1157,"o":"m 1157 926 l 810 926 l 810 0 l 347 0 l 347 926 l 0 926 l 0 1157 l 1157 1157 l 1157 926 z "},"U":{"ha":1389,"x_min":0,"x_max":1157,"o":"m 1157 116 l 1042 116 l 1042 0 l 116 0 l 116 116 l 0 116 l 0 1157 l 463 1157 l 463 231 l 694 231 l 694 1157 l 1157 1157 l 1157 116 z "},"V":{"ha":1389,"x_min":0,"x_max":1157,"o":"m 1157 116 l 1042 116 l 1042 0 l 0 0 l 0 1157 l 463 1157 l 463 231 l 694 231 l 694 1157 l 1157 1157 l 1157 116 z "},"W":{"ha":2083,"x_min":0,"x_max":1852,"o":"m 1852 116 l 1736 116 l 1736 0 l 0 0 l 0 1157 l 463 1157 l 463 231 l 694 231 l 694 1157 l 1157 1157 l 1157 231 l 1389 231 l 1389 1157 l 1852 1157 l 1852 116 z "},"X":{"ha":1389,"x_min":0,"x_max":1157,"o":"m 1157 0 l 694 0 l 694 463 l 463 463 l 463 0 l 0 0 l 0 463 l 116 463 l 116 694 l 0 694 l 0 1157 l 463 1157 l 463 694 l 694 694 l 694 1157 l 1157 1157 l 1157 694 l 1042 694 l 1042 463 l 1157 463 l 1157 0 z "},"Y":{"ha":1389,"x_min":0,"x_max":1157,"o":"m 1157 579 l 1042 579 l 1042 463 l 810 463 l 810 0 l 347 0 l 347 463 l 116 463 l 116 579 l 0 579 l 0 1157 l 463 1157 l 463 694 l 694 694 l 694 1157 l 1157 1157 l 1157 579 z "},"Z":{"ha":1389,"x_min":0,"x_max":1157,"o":"m 1157 0 l 0 0 l 0 579 l 116 579 l 116 694 l 694 694 l 694 926 l 0 926 l 0 1157 l 1157 1157 l 1157 579 l 1042 579 l 1042 463 l 463 463 l 463 231 l 1157 231 l 1157 0 z "},"[":{"ha":694,"x_min":0,"x_max":694,"o":"m 694 0 l 0 0 l 0 1157 l 694 1157 l 694 926 l 463 926 l 463 231 l 694 231 l 694 0 z "},"]":{"ha":694,"x_min":0,"x_max":694,"o":"m 694 0 l 0 0 l 0 231 l 231 231 l 231 926 l 0 926 l 0 1157 l 694 1157 l 694 0 z "},"a":{"ha":1389,"x_min":0,"x_max":1157,"o":"m 1157 0 l 694 0 l 694 463 l 463 463 l 463 0 l 0 0 l 0 1042 l 116 1042 l 116 1157 l 1042 1157 l 1042 1042 l 1157 1042 l 1157 0 m 694 694 l 694 926 l 463 926 l 463 694 l 694 694 z "},"b":{"ha":1389,"x_min":0,"x_max":1157,"o":"m 1157 116 l 1042 116 l 1042 0 l 0 0 l 0 1157 l 1042 1157 l 1042 1042 l 1157 1042 l 1157 694 l 1042 694 l 1042 463 l 1157 463 l 1157 116 m 694 694 l 694 926 l 463 926 l 463 694 l 694 694 m 694 231 l 694 463 l 463 463 l 463 231 l 694 231 z "},"c":{"ha":1389,"x_min":0,"x_max":1157,"o":"m 1157 0 l 116 0 l 116 116 l 0 116 l 0 1042 l 116 1042 l 116 1157 l 1157 1157 l 1157 926 l 463 926 l 463 231 l 1157 231 l 1157 0 z "},"d":{"ha":1389,"x_min":0,"x_max":1157,"o":"m 1157 116 l 1042 116 l 1042 0 l 0 0 l 0 1157 l 1042 1157 l 1042 1042 l 1157 1042 l 1157 116 m 694 231 l 694 926 l 463 926 l 463 231 l 694 231 z "},"e":{"ha":1389,"x_min":0,"x_max":1157,"o":"m 1157 0 l 116 0 l 116 116 l 0 116 l 0 1042 l 116 1042 l 116 1157 l 1157 1157 l 1157 926 l 463 926 l 463 694 l 810 694 l 810 463 l 463 463 l 463 231 l 1157 231 l 1157 0 z "},"f":{"ha":1389,"x_min":0,"x_max":1157,"o":"m 1157 926 l 463 926 l 463 694 l 810 694 l 810 463 l 463 463 l 463 0 l 0 0 l 0 1042 l 116 1042 l 116 1157 l 1157 1157 l 1157 926 z "},"g":{"ha":1389,"x_min":0,"x_max":1157,"o":"m 1157 0 l 116 0 l 116 116 l 0 116 l 0 1042 l 116 1042 l 116 1157 l 1157 1157 l 1157 926 l 463 926 l 463 231 l 694 231 l 694 463 l 579 463 l 579 694 l 1157 694 l 1157 0 z "},"h":{"ha":1389,"x_min":0,"x_max":1157,"o":"m 1157 0 l 694 0 l 694 463 l 463 463 l 463 0 l 0 0 l 0 1157 l 463 1157 l 463 694 l 694 694 l 694 1157 l 1157 1157 l 1157 0 z "},"i":{"ha":694,"x_min":0,"x_max":463,"o":"m 463 0 l 0 0 l 0 1157 l 463 1157 l 463 0 z "},"j":{"ha":1389,"x_min":0,"x_max":1157,"o":"m 1157 116 l 1042 116 l 1042 0 l 0 0 l 0 231 l 694 231 l 694 1157 l 1157 1157 l 1157 116 z "},"k":{"ha":1389,"x_min":0,"x_max":1157,"o":"m 1157 0 l 694 0 l 694 463 l 463 463 l 463 0 l 0 0 l 0 1157 l 463 1157 l 463 694 l 694 694 l 694 1157 l 1157 1157 l 1157 694 l 1042 694 l 1042 463 l 1157 463 l 1157 0 z "},"l":{"ha":1389,"x_min":0,"x_max":1157,"o":"m 1157 0 l 0 0 l 0 1157 l 463 1157 l 463 231 l 1157 231 l 1157 0 z "},"m":{"ha":2083,"x_min":0,"x_max":1852,"o":"m 1852 0 l 1389 0 l 1389 926 l 1157 926 l 1157 0 l 694 0 l 694 926 l 463 926 l 463 0 l 0 0 l 0 1157 l 1736 1157 l 1736 1042 l 1852 1042 l 1852 0 z "},"n":{"ha":1389,"x_min":0,"x_max":1157,"o":"m 1157 0 l 694 0 l 694 926 l 463 926 l 463 0 l 0 0 l 0 1157 l 1042 1157 l 1042 1042 l 1157 1042 l 1157 0 z "},"o":{"ha":1389,"x_min":0,"x_max":1157,"o":"m 1157 116 l 1042 116 l 1042 0 l 116 0 l 116 116 l 0 116 l 0 1042 l 116 1042 l 116 1157 l 1042 1157 l 1042 1042 l 1157 1042 l 1157 116 m 694 231 l 694 926 l 463 926 l 463 231 l 694 231 z "},"p":{"ha":1389,"x_min":0,"x_max":1157,"o":"m 1157 579 l 1042 579 l 1042 463 l 463 463 l 463 0 l 0 0 l 0 1157 l 1042 1157 l 1042 1042 l 1157 1042 l 1157 579 m 694 694 l 694 926 l 463 926 l 463 694 l 694 694 z "},"q":{"ha":1389,"x_min":0,"x_max":1157,"o":"m 1157 116 l 1042 116 l 1042 0 l 116 0 l 116 116 l 0 116 l 0 1042 l 116 1042 l 116 1157 l 1042 1157 l 1042 1042 l 1157 1042 l 1157 116 m 694 231 l 694 926 l 463 926 l 463 231 l 694 231 z "},"r":{"ha":1389,"x_min":0,"x_max":1157,"o":"m 1157 0 l 694 0 l 694 463 l 463 463 l 463 0 l 0 0 l 0 1157 l 1042 1157 l 1042 1042 l 1157 1042 l 1157 694 l 1042 694 l 1042 463 l 1157 463 l 1157 0 m 694 694 l 694 926 l 463 926 l 463 694 l 694 694 z "},"s":{"ha":1389,"x_min":0,"x_max":1157,"o":"m 1157 116 l 1042 116 l 1042 0 l 0 0 l 0 231 l 694 231 l 694 463 l 116 463 l 116 579 l 0 579 l 0 1042 l 116 1042 l 116 1157 l 1157 1157 l 1157 926 l 463 926 l 463 694 l 1042 694 l 1042 579 l 1157 579 l 1157 116 z "},"t":{"ha":1389,"x_min":0,"x_max":1157,"o":"m 1157 926 l 810 926 l 810 0 l 347 0 l 347 926 l 0 926 l 0 1157 l 1157 1157 l 1157 926 z "},"u":{"ha":1389,"x_min":0,"x_max":1157,"o":"m 1157 116 l 1042 116 l 1042 0 l 116 0 l 116 116 l 0 116 l 0 1157 l 463 1157 l 463 231 l 694 231 l 694 1157 l 1157 1157 l 1157 116 z "},"v":{"ha":1389,"x_min":0,"x_max":1157,"o":"m 1157 116 l 1042 116 l 1042 0 l 0 0 l 0 1157 l 463 1157 l 463 231 l 694 231 l 694 1157 l 1157 1157 l 1157 116 z "},"w":{"ha":2083,"x_min":0,"x_max":1852,"o":"m 1852 116 l 1736 116 l 1736 0 l 0 0 l 0 1157 l 463 1157 l 463 231 l 694 231 l 694 1157 l 1157 1157 l 1157 231 l 1389 231 l 1389 1157 l 1852 1157 l 1852 116 z "},"x":{"ha":1389,"x_min":0,"x_max":1157,"o":"m 1157 0 l 694 0 l 694 463 l 463 463 l 463 0 l 0 0 l 0 463 l 116 463 l 116 694 l 0 694 l 0 1157 l 463 1157 l 463 694 l 694 694 l 694 1157 l 1157 1157 l 1157 694 l 1042 694 l 1042 463 l 1157 463 l 1157 0 z "},"y":{"ha":1389,"x_min":0,"x_max":1157,"o":"m 1157 579 l 1042 579 l 1042 463 l 810 463 l 810 0 l 347 0 l 347 463 l 116 463 l 116 579 l 0 579 l 0 1157 l 463 1157 l 463 694 l 694 694 l 694 1157 l 1157 1157 l 1157 579 z "},"z":{"ha":1389,"x_min":0,"x_max":1157,"o":"m 1157 0 l 0 0 l 0 579 l 116 579 l 116 694 l 694 694 l 694 926 l 0 926 l 0 1157 l 1157 1157 l 1157 579 l 1042 579 l 1042 463 l 463 463 l 463 231 l 1157 231 l 1157 0 z "}}}
